<?xml version="1.0" encoding="UTF-8"?>
<svg version="1.1" xmlns="http://www.w3.org/2000/svg" width="244" height="311">
<path d="M0 0 C1.38225517 -0.01248528 1.38225517 -0.01248528 2.79243469 -0.02522278 C5.83936836 -0.04930321 8.88608667 -0.05810173 11.93310547 -0.06469727 C14.07705746 -0.07367976 16.22100888 -0.08280186 18.36495972 -0.09205627 C22.87239088 -0.10855387 27.37974784 -0.11624523 31.88720703 -0.11914062 C36.45678295 -0.12341209 41.02578531 -0.1440045 45.59521484 -0.18066406 C108.00210602 -0.67290877 108.00210602 -0.67290877 131.67529297 10.30639648 C132.26487793 10.57790527 132.85446289 10.84941406 133.46191406 11.12915039 C143.5806469 15.88519118 152.22232815 22.02993748 160.67529297 29.30639648 C161.5306665 30.04212891 161.5306665 30.04212891 162.40332031 30.79272461 C169.97714355 37.38463658 176.53481348 44.33707382 182.67529297 52.30639648 C183.45130859 53.24354492 184.22732422 54.18069336 185.02685547 55.14624023 C198.52982073 71.79989739 208.96265302 91.55295883 214.61279297 112.24389648 C214.93074829 113.39752686 214.93074829 113.39752686 215.25512695 114.57446289 C215.53851929 115.69280518 215.53851929 115.69280518 215.82763672 116.83374023 C215.99255615 117.48076904 216.15747559 118.12779785 216.32739258 118.79443359 C216.85406706 122.59720817 216.67529297 126.46732362 216.67529297 130.30639648 C136.81529297 130.30639648 56.95529297 130.30639648 -25.32470703 130.30639648 C-25.32470703 15.30639648 -25.32470703 15.30639648 -21.32470703 7.30639648 C-14.84599843 0.82768788 -8.72987766 0.00674584 0 0 Z " fill="#D60814" transform="translate(25.32470703125,-0.306396484375)"/>
<path d="M0 0 C34.32 0 68.64 0 104 0 C104 12.87 104 25.74 104 39 C102.02 39.99 102.02 39.99 100 41 C96.22573393 48.71077434 96.54086053 56.79362515 96.60888672 65.19311523 C96.62498958 67.56096804 96.60896858 69.92712046 96.58984375 72.29492188 C96.59182604 73.82292037 96.59566944 75.35091783 96.6015625 76.87890625 C96.59548981 77.57496475 96.58941711 78.27102325 96.5831604 78.98817444 C96.6534078 83.97323394 97.45686826 88.67276873 100 93 C100.68621429 93.44270233 101.37242859 93.88540466 102.07943726 94.34152222 C104 96 104 96 104.48101807 98.79045105 C104.4676944 100.48588799 104.4676944 100.48588799 104.45410156 102.21557617 C104.45379944 103.4966777 104.45349731 104.77777924 104.45318604 106.09770203 C104.43275939 107.49613057 104.4118954 108.89455279 104.390625 110.29296875 C104.38316359 111.72356883 104.37747018 113.15417914 104.37347412 114.58479309 C104.35820957 118.34813715 104.31892176 122.11086258 104.2746582 125.8739624 C104.23372257 129.71471793 104.21546682 133.55557353 104.1953125 137.39648438 C104.15242737 144.93127145 104.08416728 152.46554901 104 160 C92.14306237 160.16241155 80.28639069 160.28668178 68.42856598 160.3626852 C62.92202885 160.39916921 57.41625444 160.4486318 51.91015625 160.52807617 C46.59328246 160.60430754 41.27714081 160.64602663 35.95976257 160.6641407 C33.93434629 160.67704404 31.90896871 160.70224227 29.88386536 160.7401104 C12.01901966 161.06079174 12.01901966 161.06079174 6.94335938 156.89477539 C5.40563965 155.19081116 5.40563965 155.19081116 4 153 C2.93298859 151.58622574 2.93298859 151.58622574 1.84442139 150.14389038 C-1.27315164 144.52298976 -0.52272629 138.04245952 -0.45410156 131.80297852 C-0.45297208 130.36354097 -0.45360892 128.92410113 -0.45587158 127.48466492 C-0.45701572 123.59243772 -0.43355558 119.70070709 -0.40557575 115.80859494 C-0.38051175 111.73537312 -0.37821617 107.66213897 -0.37347412 103.58885193 C-0.36105898 95.88246119 -0.32825731 88.17629837 -0.28807616 80.47000784 C-0.23493714 70.05161759 -0.21340116 59.6331647 -0.19006729 49.21467304 C-0.15249471 32.80961143 -0.07279442 16.4050307 0 0 Z " fill="#D60814" transform="translate(0,151)"/>
<path d="M0 0 C39.6 0 79.2 0 120 0 C120 49.78492951 105.38970664 88.40667799 70.625 123.8125 C50.98796902 143.2425597 27.49118134 154.37214399 0 158 C-0.11606142 150.01992198 -0.20479867 142.04019897 -0.25906086 134.05948448 C-0.28510971 130.35331702 -0.32041894 126.64772871 -0.37719727 122.94189453 C-0.43168922 119.36272144 -0.46145597 115.7841039 -0.47438622 112.20454788 C-0.48359566 110.84178551 -0.50158028 109.47905216 -0.52865028 108.11652756 C-0.75792377 96.09376599 -0.75792377 96.09376599 2.40551758 92.36572266 C3.26169678 91.58503418 4.11787598 90.8043457 5 90 C7.65821004 86.19961389 7.32330462 82.01909682 7.3359375 77.54296875 C7.3425943 76.72178055 7.3492511 75.90059235 7.35610962 75.05451965 C7.36622107 73.31883987 7.3709271 71.58312132 7.37060547 69.84741211 C7.37496802 67.20685834 7.41127199 64.56799142 7.44921875 61.92773438 C7.45508958 60.23698485 7.45905719 58.54622743 7.4609375 56.85546875 C7.47530853 56.07294235 7.48967957 55.29041595 7.50448608 54.48417664 C7.44547406 47.31682326 5.12928294 43.12928294 0 38 C0 25.46 0 12.92 0 0 Z " fill="#D60814" transform="translate(124,151)"/>
</svg>
